<?xml version="1.0" encoding="UTF-8"?>
<svg xmlns="http://www.w3.org/2000/svg" xmlns:xlink="http://www.w3.org/1999/xlink" width="142px" height="130px" viewBox="0 0 141 130" version="1.1">
<g id="surface1">
<path style=" stroke:none;fill-rule:nonzero;fill:rgb(100%,100%,100%);fill-opacity:1;" d="M 83.777344 18.839844 C 76.609375 20.371094 65.328125 25.082031 61.335938 28.378906 C 56.988281 31.910156 51.699219 39.800781 51.699219 42.746094 C 51.699219 44.039062 49.113281 47.574219 45.941406 50.632812 C 37.128906 59.230469 34.78125 64.648438 34.78125 75.949219 C 34.78125 89.140625 38.1875 96.203125 50.171875 108.214844 C 55.226562 113.160156 60.628906 118.226562 62.273438 119.285156 C 65.09375 121.050781 64.742188 121.167969 54.050781 121.285156 C 39.246094 121.402344 42.652344 123.050781 59.691406 124.113281 C 71.324219 124.820312 72.851562 124.582031 72.851562 122.933594 C 72.851562 120.816406 63.332031 105.976562 62.039062 105.976562 C 60.160156 105.976562 61.21875 109.039062 64.625 113.515625 C 66.621094 116.105469 67.914062 118.34375 67.679688 118.695312 C 66.503906 119.753906 52.640625 107.625 47 100.796875 C 34.074219 85.136719 33.605469 66.414062 45.707031 54.875 C 47.703125 52.988281 49.46875 51.574219 49.703125 51.929688 C 49.9375 52.164062 50.761719 54.753906 51.582031 57.699219 C 55.578125 71.59375 68.503906 78.660156 80.488281 73.714844 C 84.71875 71.949219 88.125 66.765625 88.125 62.175781 C 88.125 60.644531 86.949219 57.347656 85.421875 54.753906 C 80.957031 46.511719 69.207031 42.507812 57.339844 45.101562 L 52.875 46.042969 L 54.167969 42.746094 C 56.046875 37.800781 60.746094 32.027344 65.566406 28.851562 C 77.199219 21.078125 96.703125 18.605469 107.628906 23.433594 C 113.035156 25.90625 114.914062 26.023438 113.503906 23.785156 C 111.273438 20.019531 92.589844 16.957031 83.777344 18.839844 Z M 76.492188 49.808594 C 80.957031 52.871094 85.773438 59.347656 85.773438 62.527344 C 85.773438 63.703125 84.363281 66.414062 82.601562 68.296875 C 75.082031 76.65625 61.921875 73.007812 55.929688 60.996094 C 50.523438 50.046875 52.40625 47.335938 65.917969 47.21875 C 70.96875 47.101562 73.4375 47.691406 76.492188 49.808594 Z M 76.492188 49.808594 "/>
</g>
</svg>
