<?xml version="1.0" encoding="UTF-8"?>
<svg version="1.1" xmlns="http://www.w3.org/2000/svg" width="71" height="89">
<path d="M0 0 C23.43 0 46.86 0 71 0 C71 29.37 71 58.74 71 89 C47.57 89 24.14 89 0 89 C0 59.63 0 30.26 0 0 Z " fill="#F7FCFC" transform="translate(0,0)"/>
<path d="M0 0 C1.99874609 1.47847323 3.91779945 3.02458574 5.8359375 4.60546875 C6.7228125 5.22421875 7.6096875 5.84296875 8.5234375 6.48046875 C13.88853296 11.41055647 17.77882537 18.35799548 18.171875 25.6796875 C18.42952427 38.6293637 16.61421268 47.19545524 8.0546875 57.3359375 C2.62052086 62.89447767 -2.77923702 66.32264668 -10.62768555 66.73486328 C-11.46855713 66.73599121 -12.30942871 66.73711914 -13.17578125 66.73828125 C-14.09810547 66.73957031 -15.02042969 66.74085937 -15.97070312 66.7421875 C-17.39672852 66.73638672 -17.39672852 66.73638672 -18.8515625 66.73046875 C-19.81384766 66.73433594 -20.77613281 66.73820312 -21.76757812 66.7421875 C-22.68603516 66.74089844 -23.60449219 66.73960938 -24.55078125 66.73828125 C-25.38826904 66.73715332 -26.22575684 66.73602539 -27.08862305 66.73486328 C-29.1640625 66.60546875 -29.1640625 66.60546875 -31.1640625 65.60546875 C-31.5390625 63.35546875 -31.5390625 63.35546875 -31.1640625 60.60546875 C-26.19108953 56.60546875 -26.19108953 56.60546875 -23.1640625 56.60546875 C-23.1640625 54.62546875 -23.1640625 52.64546875 -23.1640625 50.60546875 C-23.8240625 50.60546875 -24.4840625 50.60546875 -25.1640625 50.60546875 C-26.36031822 48.2129573 -26.30096134 46.52142464 -26.4140625 43.85546875 C-26.87906573 38.48468145 -28.45811953 36.40406029 -32.1640625 32.60546875 C-34.11298568 26.7586992 -34.15750695 20.66594613 -31.4765625 15.10546875 C-27.33439629 10.62745122 -23.59468836 8.95628444 -17.5703125 8.484375 C-12.46885495 8.74110419 -8.29778791 10.72540301 -4.48828125 14.08203125 C-1.06683407 18.14921635 -0.46805693 22.00594857 -0.73046875 27.23828125 C-1.36527448 30.70397739 -2.94046434 32.92407097 -5.1640625 35.60546875 C-7.20279416 38.66356624 -7.40771917 39.55966291 -7.6015625 43.04296875 C-7.9384365 46.82820747 -8.59807665 48.71873467 -11.1640625 51.60546875 C-11.86921096 53.75280802 -11.86921096 53.75280802 -12.1640625 55.60546875 C-11.5659375 55.87359375 -10.9678125 56.14171875 -10.3515625 56.41796875 C-8.1640625 57.60546875 -8.1640625 57.60546875 -6.7265625 59.29296875 C-6.2109375 59.72609375 -5.6953125 60.15921875 -5.1640625 60.60546875 C-2.29037758 60.31810026 0.09383894 59.5195016 2.8359375 58.60546875 C2.8359375 57.94546875 2.8359375 57.28546875 2.8359375 56.60546875 C3.6403125 56.11046875 4.4446875 55.61546875 5.2734375 55.10546875 C8.61852642 51.84196736 8.46485353 49.66290709 8.59765625 45.140625 C8.8359375 42.60546875 8.8359375 42.60546875 9.828125 40.13671875 C12.58001225 33.22500193 11.28005799 25.88254598 8.5859375 19.16796875 C5.84965998 12.96067252 2.72823437 8.76810334 -3.2265625 5.41796875 C-4.08378906 4.92941406 -4.94101562 4.44085938 -5.82421875 3.9375 C-6.59636719 3.49792969 -7.36851563 3.05835938 -8.1640625 2.60546875 C-9.1540625 1.94546875 -10.1440625 1.28546875 -11.1640625 0.60546875 C-11.1640625 0.27546875 -11.1640625 -0.05453125 -11.1640625 -0.39453125 C-13.20504859 -0.47629182 -15.24700273 -0.5340634 -17.2890625 -0.58203125 C-18.42601563 -0.61683594 -19.56296875 -0.65164063 -20.734375 -0.6875 C-28.82569524 0.003672 -35.03587467 5.66666887 -40.1640625 11.60546875 C-46.76057328 23.24118487 -45.89583832 33.99539645 -43.1640625 46.60546875 C-47.23723695 42.83359762 -47.98376139 38.98979554 -48.390625 33.609375 C-48.64765004 23.69054506 -47.37342407 15.3146962 -40.95703125 7.48828125 C-29.98896096 -4.02938734 -14.28984138 -9.20843569 0 0 Z " fill="#7AA8BD" transform="translate(51.1640625,12.39453125)"/>
<path d="M0 0 C1.99874609 1.47847323 3.91779945 3.02458574 5.8359375 4.60546875 C6.7228125 5.22421875 7.6096875 5.84296875 8.5234375 6.48046875 C13.88853296 11.41055647 17.77882537 18.35799548 18.171875 25.6796875 C18.42952427 38.6293637 16.61421268 47.19545524 8.0546875 57.3359375 C1.91609166 63.61502937 -3.78363531 66.53558124 -12.51953125 66.7734375 C-14.13017774 66.78530959 -15.74087277 66.79168328 -17.3515625 66.79296875 C-18.17076172 66.80521484 -18.98996094 66.81746094 -19.83398438 66.83007812 C-21.94533186 66.83529133 -24.05628059 66.72823196 -26.1640625 66.60546875 C-26.8240625 65.94546875 -27.4840625 65.28546875 -28.1640625 64.60546875 C-18.2640625 64.11046875 -18.2640625 64.11046875 -8.1640625 63.60546875 C-8.93926522 60.40260291 -8.93926522 60.40260291 -11.7890625 58.41796875 C-14.1640625 55.60546875 -14.1640625 55.60546875 -14.26953125 53.50390625 C-14.00676034 51.52086176 -13.594499 49.55898825 -13.1640625 47.60546875 C-16.1340625 47.60546875 -19.1040625 47.60546875 -22.1640625 47.60546875 C-22.4940625 48.26546875 -22.8240625 48.92546875 -23.1640625 49.60546875 C-24.76761351 46.09770091 -25.38443114 43.46191996 -25.1640625 39.60546875 C-24.5040625 40.26546875 -23.8440625 40.92546875 -23.1640625 41.60546875 C-20.27182747 42.06943568 -20.27182747 42.06943568 -17.0390625 42.23046875 C-15.94335938 42.30523437 -14.84765625 42.38 -13.71875 42.45703125 C-12.87570313 42.50601563 -12.03265625 42.555 -11.1640625 42.60546875 C-10.8340625 41.61546875 -10.5040625 40.62546875 -10.1640625 39.60546875 C-9.8340625 39.60546875 -9.5040625 39.60546875 -9.1640625 39.60546875 C-9.11010772 41.23010717 -9.07129055 42.85525416 -9.0390625 44.48046875 C-9.01585937 45.38539062 -8.99265625 46.2903125 -8.96875 47.22265625 C-9.1640625 49.60546875 -9.1640625 49.60546875 -11.1640625 51.60546875 C-11.806586 53.67420909 -11.806586 53.67420909 -12.1640625 55.60546875 C-11.5659375 55.87359375 -10.9678125 56.14171875 -10.3515625 56.41796875 C-8.1640625 57.60546875 -8.1640625 57.60546875 -6.7265625 59.29296875 C-6.2109375 59.72609375 -5.6953125 60.15921875 -5.1640625 60.60546875 C-2.29037758 60.31810026 0.09383894 59.5195016 2.8359375 58.60546875 C2.8359375 57.94546875 2.8359375 57.28546875 2.8359375 56.60546875 C3.6403125 56.11046875 4.4446875 55.61546875 5.2734375 55.10546875 C8.61852642 51.84196736 8.46485353 49.66290709 8.59765625 45.140625 C8.8359375 42.60546875 8.8359375 42.60546875 9.828125 40.13671875 C12.58001225 33.22500193 11.28005799 25.88254598 8.5859375 19.16796875 C5.84965998 12.96067252 2.72823437 8.76810334 -3.2265625 5.41796875 C-4.08378906 4.92941406 -4.94101562 4.44085938 -5.82421875 3.9375 C-6.59636719 3.49792969 -7.36851563 3.05835938 -8.1640625 2.60546875 C-9.1540625 1.94546875 -10.1440625 1.28546875 -11.1640625 0.60546875 C-11.1640625 0.27546875 -11.1640625 -0.05453125 -11.1640625 -0.39453125 C-13.20504859 -0.47629182 -15.24700273 -0.5340634 -17.2890625 -0.58203125 C-18.42601563 -0.61683594 -19.56296875 -0.65164063 -20.734375 -0.6875 C-28.82569524 0.003672 -35.03587467 5.66666887 -40.1640625 11.60546875 C-46.76057328 23.24118487 -45.89583832 33.99539645 -43.1640625 46.60546875 C-47.23723695 42.83359762 -47.98376139 38.98979554 -48.390625 33.609375 C-48.64765004 23.69054506 -47.37342407 15.3146962 -40.95703125 7.48828125 C-29.98896096 -4.02938734 -14.28984138 -9.20843569 0 0 Z " fill="#61A1BA" transform="translate(51.1640625,12.39453125)"/>
<path d="M0 0 C3.71648849 0.74193635 6.43430817 2.83667574 9.1328125 5.42578125 C11.82439302 9.46315202 11.80704708 12.68176923 11.1328125 17.42578125 C9.3203125 20.73828125 9.3203125 20.73828125 7.1328125 23.42578125 C5.2091761 25.91938399 4.14080107 27.40181554 3.1328125 30.42578125 C2.1428125 30.42578125 1.1528125 30.42578125 0.1328125 30.42578125 C-0.1171875 23.80078125 -0.1171875 23.80078125 2.1328125 20.42578125 C2.51781141 18.77028594 2.86074385 17.10353795 3.1328125 15.42578125 C0.1628125 15.42578125 -2.8071875 15.42578125 -5.8671875 15.42578125 C-6.1971875 16.08578125 -6.5271875 16.74578125 -6.8671875 17.42578125 C-7.5271875 17.09578125 -8.1871875 16.76578125 -8.8671875 16.42578125 C-8.8671875 19.06578125 -8.8671875 21.70578125 -8.8671875 24.42578125 C-11.8671875 23.42578125 -11.8671875 23.42578125 -13.5546875 20.23828125 C-14.88253907 16.89098875 -15.13170611 14.04086898 -14.8671875 10.42578125 C-13.9184375 10.34328125 -12.9696875 10.26078125 -11.9921875 10.17578125 C-8.76256959 9.77503202 -8.76256959 9.77503202 -7.4921875 7.36328125 C-7.2859375 6.72390625 -7.0796875 6.08453125 -6.8671875 5.42578125 C-7.5271875 4.76578125 -8.1871875 4.10578125 -8.8671875 3.42578125 C-6.60332099 0.02998148 -3.9218856 -0.13748307 0 0 Z " fill="#EBFAFC" transform="translate(36.8671875,23.57421875)"/>
<path d="M0 0 C0 0.33 0 0.66 0 1 C-1.11375 1.12375 -2.2275 1.2475 -3.375 1.375 C-7.03103677 1.6465813 -7.03103677 1.6465813 -9 4 C-8.34 4.66 -7.68 5.32 -7 6 C-8.1875 8.4375 -8.1875 8.4375 -10 11 C-12.6875 11.8125 -12.6875 11.8125 -15 12 C-15.42161769 16.63779454 -14.06085642 19.87828716 -12 24 C-11.34 24.33 -10.68 24.66 -10 25 C-10 22.36 -10 19.72 -10 17 C-8.37681021 16.63762737 -6.7513642 16.28534843 -5.125 15.9375 C-4.22007813 15.74027344 -3.31515625 15.54304688 -2.3828125 15.33984375 C0 15 0 15 2 16 C2.20086443 19.71599191 2.1519437 20.77208445 0 24 C-0.39387788 26.32387947 -0.73486085 28.65793749 -1 31 C-0.01 31.33 0.98 31.66 2 32 C-1.96 32 -5.92 32 -10 32 C-10.66 30.35 -11.32 28.7 -12 27 C-12.66 26.175 -13.32 25.35 -14 24.5 C-17.06194402 20.67256998 -18.2519715 17.87996476 -17.8125 13 C-16.9726583 7.9227752 -15.2417328 5.06846776 -11.3125 1.6875 C-7.11530392 -0.45069423 -4.648288 -0.32057159 0 0 Z " fill="#D8F1F9" transform="translate(38,23)"/>
<path d="M0 0 C1.051875 0.99 1.051875 0.99 2.125 2 C2.125 2.66 2.125 3.32 2.125 4 C2.71925781 4.23847656 3.31351563 4.47695313 3.92578125 4.72265625 C6.59160288 6.27101091 7.66046457 7.85115147 9.3125 10.4375 C9.82167969 11.21996094 10.33085938 12.00242187 10.85546875 12.80859375 C14.9421817 19.86288902 13.95991282 30.11668219 13.125 38 C11.93953086 41.75951227 10.46030244 44.83066098 8.125 48 C7.795 48 7.465 48 7.125 48 C7.07027912 46.60461746 7.03188462 45.20859103 7 43.8125 C6.97679688 43.03519531 6.95359375 42.25789063 6.9296875 41.45703125 C7.15309133 38.64661105 8.08087213 36.60831942 9.125 34 C10.48593956 24.12960678 7.95656037 15.46904828 2.26953125 7.3515625 C0.02173467 4.88676552 -2.04009661 3.44256254 -4.9375 1.8125 C-5.79472656 1.32394531 -6.65195312 0.83539062 -7.53515625 0.33203125 C-8.30730469 -0.10753906 -9.07945313 -0.54710937 -9.875 -1 C-10.865 -1.66 -11.855 -2.32 -12.875 -3 C-7.91542977 -4.90752701 -4.1422062 -2.88153475 0 0 Z " fill="#9CCADA" transform="translate(52.875,16)"/>
<path d="M0 0 C1.11503906 -0.00515625 2.23007812 -0.0103125 3.37890625 -0.015625 C6.30305372 0.23832395 7.96835968 0.72867149 10.4375 2.25 C10.4375 2.91 10.4375 3.57 10.4375 4.25 C12.3975281 5.88676257 12.3975281 5.88676257 14.4375 7.25 C12.7875 7.58 11.1375 7.91 9.4375 8.25 C10.0975 10.23 10.7575 12.21 11.4375 14.25 C10.90382813 14.02183594 10.37015625 13.79367188 9.8203125 13.55859375 C3.67049311 11.18591257 -1.10440599 11.13095657 -7.5625 12.25 C-7.75 9.375 -7.75 9.375 -7.5625 6.25 C-6.5725 5.59 -5.5825 4.93 -4.5625 4.25 C-7.2025 4.25 -9.8425 4.25 -12.5625 4.25 C-11.5625 2.25 -11.5625 2.25 -9.41015625 1.140625 C-6.14235245 0.11859583 -3.42013044 -0.01585228 0 0 Z " fill="#EDF9FA" transform="translate(33.5625,10.75)"/>
<path d="M0 0 C0.66 0.66 1.32 1.32 2 2 C4.89223503 2.46396693 4.89223503 2.46396693 8.125 2.625 C9.76855469 2.73714844 9.76855469 2.73714844 11.4453125 2.8515625 C12.28835937 2.90054688 13.13140625 2.94953125 14 3 C14.33 2.01 14.66 1.02 15 0 C15.33 0 15.66 0 16 0 C16.05395478 1.62463842 16.09277195 3.24978541 16.125 4.875 C16.14820312 5.77992187 16.17140625 6.68484375 16.1953125 7.6171875 C16 10 16 10 14 12 C13.3574765 14.06874034 13.3574765 14.06874034 13 16 C13.598125 16.268125 14.19625 16.53625 14.8125 16.8125 C17 18 17 18 18.375 19.5625 C20.70402275 21.62278935 22.97538534 21.6639317 26 22 C23.06790587 25.36647845 21.39359222 26.42590395 17 27 C13.93612651 27.15877063 10.88005554 27.18505183 7.8125 27.1875 C6.58370117 27.20586914 6.58370117 27.20586914 5.33007812 27.22460938 C3.21873064 27.22982258 1.10778191 27.12276321 -1 27 C-1.66 26.34 -2.32 25.68 -3 25 C6.9 24.505 6.9 24.505 17 24 C16.22479728 20.79713416 16.22479728 20.79713416 13.375 18.8125 C11 16 11 16 10.89453125 13.8984375 C11.15730216 11.91539301 11.5695635 9.9535195 12 8 C9.03 8 6.06 8 3 8 C2.67 8.66 2.34 9.32 2 10 C0.39644899 6.49223216 -0.22036864 3.85645121 0 0 Z " fill="#5196B0" transform="translate(26,52)"/>
<path d="M0 0 C2.97 0 5.94 0 9 0 C8.8453125 1.8253125 8.8453125 1.8253125 8.6875 3.6875 C8.6547057 7.40637398 8.82161041 7.80377145 11.5 10.75 C12.7375 11.86375 12.7375 11.86375 14 13 C14 14.32 14 15.64 14 17 C7.73 17 1.46 17 -5 17 C-4 13 -4 13 -1.4375 10.5625 C1.22123296 8.26330315 1.22123296 8.26330315 1.375 5.375 C1.04452473 2.85957587 1.04452473 2.85957587 0 0 Z " fill="#F1FBFC" transform="translate(29,60)"/>
<path d="M0 0 C-0.33 0.99 -0.66 1.98 -1 3 C-1.99 3 -2.98 3 -4 3 C-4 3.66 -4 4.32 -4 5 C-3.01 5.33 -2.02 5.66 -1 6 C-1 7.98 -1 9.96 -1 12 C-2.134375 12.268125 -3.26875 12.53625 -4.4375 12.8125 C-5.613125 13.204375 -6.78875 13.59625 -8 14 C-8.33 14.99 -8.66 15.98 -9 17 C-9.66 16.67 -10.32 16.34 -11 16 C-11 18.64 -11 21.28 -11 24 C-14 23 -14 23 -15.6875 19.8125 C-17.01535157 16.4652075 -17.26451861 13.61508773 -17 10 C-16.05125 9.9175 -15.1025 9.835 -14.125 9.75 C-10.89538209 9.34925077 -10.89538209 9.34925077 -9.625 6.9375 C-9.41875 6.298125 -9.2125 5.65875 -9 5 C-9.66 4.34 -10.32 3.68 -11 3 C-8.21756596 -1.17365106 -4.53441502 -0.22300402 0 0 Z " fill="#F4FBFA" transform="translate(39,24)"/>
<path d="M0 0 C0.20086443 3.71599191 0.1519437 4.77208445 -2 8 C-2.39387788 10.32387947 -2.73486085 12.65793749 -3 15 C-2.01 15.33 -1.02 15.66 0 16 C-2.97 16 -5.94 16 -9 16 C-10 11 -11 6 -12 1 C-7.58774263 -0.47075246 -4.51718381 -1.36884358 0 0 Z " fill="#95C1D4" transform="translate(40,39)"/>
<path d="M0 0 C0.99 0.66 1.98 1.32 3 2 C2.45730469 2.44730469 1.91460937 2.89460938 1.35546875 3.35546875 C-5.92444103 9.50732044 -10.31061366 15.93901266 -11.2578125 25.640625 C-11.39024096 32.26204813 -10.39886108 38.54275735 -9 45 C-13.07317445 41.22812887 -13.81969889 37.38432679 -14.2265625 32.00390625 C-14.51419214 20.90401692 -12.64450107 12.29428366 -5 4 C-2.125 1.5 -2.125 1.5 0 0 Z " fill="#85B3C3" transform="translate(17,14)"/>
<path d="M0 0 C2.60314086 2.60314086 2.31106269 4.51479774 2.38085938 8.06835938 C2.34876571 21.38723059 -0.3771555 30.23379842 -10 40 C-12.75390625 41.78515625 -12.75390625 41.78515625 -15 43 C-15.66 42.34 -16.32 41.68 -17 41 C-15.68 40.34 -14.36 39.68 -13 39 C-13 38.34 -13 37.68 -13 37 C-11.9523451 36.10243049 -10.8603372 35.25625705 -9.75 34.4375 C-4.46756274 29.97843858 -2.39424591 25.28779384 -1.57421875 18.44921875 C-1.40478954 16.01398998 -1.269704 13.57602683 -1.17578125 11.13671875 C-1.03063515 8.54666727 -0.65034726 6.47977939 0 4 C0 2.68 0 1.36 0 0 Z " fill="#6BABC5" transform="translate(67,32)"/>
<path d="M0 0 C4.93888923 4.54897692 6.99204832 7.82047618 7.37109375 14.51171875 C7.41097679 16.23666015 7.43239717 17.96210513 7.4375 19.6875 C7.44136719 20.57856445 7.44523437 21.46962891 7.44921875 22.38769531 C7.32987788 29.18763863 6.10720536 34.42593558 2 40 C1.67 40 1.34 40 1 40 C0.65036714 34.17278563 0.80360244 30.11423609 4 25 C4.33 24.67 4.66 24.34 5 24 C5.06546549 16.90354036 3.47660077 10.75512718 0.83984375 4.21484375 C0 2 0 2 0 0 Z " fill="#9FD3EB" transform="translate(59,24)"/>
<path d="M0 0 C0.66 0.66 1.32 1.32 2 2 C4.89223503 2.46396693 4.89223503 2.46396693 8.125 2.625 C9.76855469 2.73714844 9.76855469 2.73714844 11.4453125 2.8515625 C12.28835937 2.90054688 13.13140625 2.94953125 14 3 C14.33 2.01 14.66 1.02 15 0 C15.33 0 15.66 0 16 0 C16 3.3 16 6.6 16 10 C15.34 10 14.68 10 14 10 C14 9.34 14 8.68 14 8 C10.37 8 6.74 8 3 8 C2.67 8.66 2.34 9.32 2 10 C0.39644899 6.49223216 -0.22036864 3.85645121 0 0 Z " fill="#3E9BC6" transform="translate(26,52)"/>
<path d="M0 0 C1.3096875 -0.01417969 2.619375 -0.02835937 3.96875 -0.04296875 C7.17108832 0.16603342 8.85158038 0.47818836 11.5 2.1875 C11.5 2.8475 11.5 3.5075 11.5 4.1875 C9.829375 3.94 9.829375 3.94 8.125 3.6875 C-3.05046765 2.36926702 -10.48957266 4.11372176 -20.5 9.1875 C-20.5 8.1975 -20.5 7.2075 -20.5 6.1875 C-19.84 6.1875 -19.18 6.1875 -18.5 6.1875 C-18.5 5.5275 -18.5 4.8675 -18.5 4.1875 C-15.035 3.6925 -15.035 3.6925 -11.5 3.1875 C-11.5 2.5275 -11.5 1.8675 -11.5 1.1875 C-7.68356718 -0.02947475 -3.98269899 0.0195999 0 0 Z " fill="#DFF9FC" transform="translate(36.5,5.8125)"/>
<path d="M0 0 C2 3 2 3 2 5 C2.99 5.33 3.98 5.66 5 6 C4.8125 9.25 4.8125 9.25 4 13 C2.37667033 14.38576923 0.71275535 15.72641268 -1 17 C-1 18.32 -1 19.64 -1 21 C-1.99 21.33 -2.98 21.66 -4 22 C-4.66 21.67 -5.32 21.34 -6 21 C-6.375 18.75 -6.375 18.75 -6 16 C-1.02702703 12 -1.02702703 12 2 12 C2 10.02 2 8.04 2 6 C1.34 6 0.68 6 0 6 C0 4.02 0 2.04 0 0 Z " fill="#73ADC4" transform="translate(26,57)"/>
<path d="M0 0 C3.19193651 1.83536349 4.65366486 3.22350921 6.5 6.4375 C6.82049356 9.46947085 6.73809895 12.40173837 6.5 15.4375 C6.17 15.4375 5.84 15.4375 5.5 15.4375 C5.5 12.7975 5.5 10.1575 5.5 7.4375 C4.84 7.4375 4.18 7.4375 3.5 7.4375 C3.5 8.0975 3.5 8.7575 3.5 9.4375 C-0.08273331 7.78393078 -3.30973467 5.75769297 -6.5 3.4375 C-6.5 2.7775 -6.5 2.1175 -6.5 1.4375 C-4.00866765 -0.22338823 -2.97431003 -0.66921976 0 0 Z " fill="#C8E3ED" transform="translate(41.5,25.5625)"/>
<path d="M0 0 C0.99 0.33 1.98 0.66 3 1 C3.33 6.61 3.66 12.22 4 18 C3.34 18 2.68 18 2 18 C2 19.32 2 20.64 2 22 C1.34 22 0.68 22 0 22 C0 14.74 0 7.48 0 0 Z " fill="#CAE6EF" transform="translate(0,35)"/>
<path d="M0 0 C3 1 3 1 4.16210938 3.17822266 C5.73320656 8.46923118 5.45344925 13.89364862 5.5 19.375 C5.54125 20.5815625 5.5825 21.788125 5.625 23.03125 C5.7124252 32.97586684 5.7124252 32.97586684 1.96875 37.3515625 C0.49921875 38.66253906 0.49921875 38.66253906 -1 40 C-1.66 39.67 -2.32 39.34 -3 39 C-2.0234375 37.37239583 -1.046875 35.74479167 -0.0703125 34.1171875 C2.8315518 28.37700338 3.33852681 23.30889789 3.3125 17 C3.32861328 16.21882813 3.34472656 15.43765625 3.36132812 14.6328125 C3.36554575 9.62227017 2.5586557 6.42870222 0 2 C0 1.34 0 0.68 0 0 Z " fill="#CEEDF8" transform="translate(65,26)"/>
<path d="M0 0 C0.90105469 0.00902344 1.80210938 0.01804687 2.73046875 0.02734375 C3.41753906 0.03894531 4.10460937 0.05054688 4.8125 0.0625 C4.4825 1.0525 4.1525 2.0425 3.8125 3.0625 C3.01585938 3.09988281 2.21921875 3.13726562 1.3984375 3.17578125 C-4.52946223 3.54357065 -8.97697164 3.9896243 -14.1875 7.0625 C-15.1775 7.0625 -16.1675 7.0625 -17.1875 7.0625 C-17.1875 6.4025 -17.1875 5.7425 -17.1875 5.0625 C-15.75078432 4.41492375 -14.31309584 3.76950547 -12.875 3.125 C-12.07449219 2.76535156 -11.27398437 2.40570313 -10.44921875 2.03515625 C-6.76068611 0.4488961 -3.9858904 -0.05176481 0 0 Z " fill="#5297B2" transform="translate(35.1875,7.9375)"/>
<path d="M0 0 C0.33 0 0.66 0 1 0 C1.47052064 6.61342897 1.41547355 10.67545836 -3 16 C-5.02350324 19.03525486 -5.32124018 20.19426202 -5.625 23.6875 C-5.69976562 24.49574219 -5.77453125 25.30398437 -5.8515625 26.13671875 C-5.90054688 26.75160156 -5.94953125 27.36648437 -6 28 C-6.33 28 -6.66 28 -7 28 C-7.144375 26.88625 -7.28875 25.7725 -7.4375 24.625 C-7.78372035 21.17857953 -7.78372035 21.17857953 -9 19 C-8.60167969 18.55011719 -8.20335937 18.10023437 -7.79296875 17.63671875 C-3.26496232 12.13921216 -1.45139446 6.92595253 0 0 Z " fill="#82AEC1" transform="translate(49,32)"/>
<path d="M0 0 C0.99 0.66 1.98 1.32 3 2 C2.46890625 2.42410156 1.9378125 2.84820313 1.390625 3.28515625 C-3.28170538 7.16455465 -6.32694461 10.54251191 -9 16 C-9.66 16 -10.32 16 -11 16 C-10.29545067 10.01133071 -7.28793663 5.92270583 -2.75 2.125 C-1.38875 1.073125 -1.38875 1.073125 0 0 Z " fill="#74A8BD" transform="translate(17,14)"/>
<path d="M0 0 C0.66 0 1.32 0 2 0 C8.79675893 7.49726055 11.26491163 17.06581398 11 27 C10.34 27.33 9.68 27.66 9 28 C8.98582031 27.34515625 8.97164062 26.6903125 8.95703125 26.015625 C8.50113572 17.29200242 6.49383565 8.22800612 0 2 C0 1.34 0 0.68 0 0 Z " fill="#83ADC0" transform="translate(54,21)"/>
<path d="M0 0 C0.20086443 3.71599191 0.1519437 4.77208445 -2 8 C-2.39013716 9.9896995 -2.73202649 11.99019869 -3 14 C-3.66 13.67 -4.32 13.34 -5 13 C-4.34 9.37 -3.68 5.74 -3 2 C-4.98 2 -6.96 2 -9 2 C-9 1.34 -9 0.68 -9 0 C-5.67465243 -1.10844919 -3.37817425 -0.84454356 0 0 Z " fill="#9DC1C9" transform="translate(40,39)"/>
<path d="M0 0 C3.40154516 2.19210688 4.97885088 4.21854772 6.8125 7.8125 C6.5625 10.1875 6.5625 10.1875 5.8125 11.8125 C5.27625 10.74 4.74 9.6675 4.1875 8.5625 C1.95787472 4.74581506 -0.09026131 2.70936976 -4.1875 0.8125 C-7.55088046 0.50536496 -10.82167189 0.57303397 -14.1875 0.8125 C-11.53302324 -4.49645352 -4.38331766 -1.6330007 0 0 Z " fill="#74A0B3" transform="translate(42.1875,23.1875)"/>
<path d="M0 0 C2.97 0 5.94 0 9 0 C8.67 2.64 8.34 5.28 8 8 C7.67 8 7.34 8 7 8 C7 6.02 7 4.04 7 2 C6.01 2.33 5.02 2.66 4 3 C4.061875 3.928125 4.12375 4.85625 4.1875 5.8125 C4 9 4 9 2.5 10.875 C1.7575 11.431875 1.7575 11.431875 1 12 C0.34 11.67 -0.32 11.34 -1 11 C-0.34 10.01 0.32 9.02 1 8 C1.23314275 4.89143 0.99528744 2.98586231 0 0 Z " fill="#BFE7F4" transform="translate(29,60)"/>
<path d="M0 0 C1.8871875 0.061875 1.8871875 0.061875 3.8125 0.125 C3.8125 0.455 3.8125 0.785 3.8125 1.125 C2.69875 1.24875 1.585 1.3725 0.4375 1.5 C-3.21853677 1.7715813 -3.21853677 1.7715813 -5.1875 4.125 C-4.5275 4.785 -3.8675 5.445 -3.1875 6.125 C-4.47715176 7.50062854 -5.81439293 8.83266393 -7.1875 10.125 C-7.8475 10.125 -8.5075 10.125 -9.1875 10.125 C-9.1875 8.805 -9.1875 7.485 -9.1875 6.125 C-10.1775 6.125 -11.1675 6.125 -12.1875 6.125 C-4.4532563 -0.1460084 -4.4532563 -0.1460084 0 0 Z " fill="#BFDAE4" transform="translate(34.1875,22.875)"/>
<path d="M0 0 C1.32 0 2.64 0 4 0 C3.34 4.29 2.68 8.58 2 13 C1.34 13 0.68 13 0 13 C-0.19397476 11.02145742 -0.38001321 9.0421352 -0.5625 7.0625 C-0.66691406 5.96035156 -0.77132812 4.85820313 -0.87890625 3.72265625 C-0.91886719 2.82417969 -0.95882812 1.92570312 -1 1 C-0.67 0.67 -0.34 0.34 0 0 Z " fill="#E4F8FD" transform="translate(33,41)"/>
<path d="M0 0 C0.66 0.33 1.32 0.66 2 1 C2 1.66 2 2.32 2 3 C0.576875 3.86625 0.576875 3.86625 -0.875 4.75 C-4.4294113 7.30917613 -5.04949793 8.81779089 -6 13 C-6.99 12.34 -7.98 11.68 -9 11 C-7.23179061 5.69537183 -4.60495255 3.06996837 0 0 Z " fill="#8CB5C8" transform="translate(27,22)"/>
<path d="M0 0 C0 0.66 0 1.32 0 2 C-5.46500137 4.34726288 -10.09116996 4.06052937 -15.875 3.625 C-16.75414062 3.56828125 -17.63328125 3.5115625 -18.5390625 3.453125 C-20.69342162 3.31262332 -22.84683563 3.1577566 -25 3 C-25 2.67 -25 2.34 -25 2 C-23.75863281 1.93941406 -22.51726563 1.87882812 -21.23828125 1.81640625 C-19.59634423 1.73196377 -17.95441768 1.64731764 -16.3125 1.5625 C-15.08756836 1.50352539 -15.08756836 1.50352539 -13.83789062 1.44335938 C-9.21386278 1.19998949 -4.56628748 0 0 0 Z " fill="#B7DFED" transform="translate(50,77)"/>
<path d="M0 0 C1.32 0.66 2.64 1.32 4 2 C3.67 2.99 3.34 3.98 3 5 C-3.27 5 -9.54 5 -16 5 C-15.67 3.68 -15.34 2.36 -15 1 C-14.67 1.66 -14.34 2.32 -14 3 C-10.72444392 3.47001033 -10.72444392 3.47001033 -6.9375 3.625 C-5.00197266 3.73714844 -5.00197266 3.73714844 -3.02734375 3.8515625 C-1.52880859 3.92503906 -1.52880859 3.92503906 0 4 C0 2.68 0 1.36 0 0 Z " fill="#BBEBF6" transform="translate(40,72)"/>
<path d="M0 0 C-0.49730652 4.97306516 -1.55302334 8.63799813 -4 13 C-4.33 13 -4.66 13 -5 13 C-5.62837838 4.83108108 -5.62837838 4.83108108 -3.0625 1.4375 C-1 0 -1 0 0 0 Z " fill="#B8E0F1" transform="translate(65,51)"/>
<path d="M0 0 C1.74216797 0.02707031 1.74216797 0.02707031 3.51953125 0.0546875 C4.39996094 0.07789063 5.28039062 0.10109375 6.1875 0.125 C6.1875 0.455 6.1875 0.785 6.1875 1.125 C2.8875 1.125 -0.4125 1.125 -3.8125 1.125 C-3.8125 1.785 -3.8125 2.445 -3.8125 3.125 C-8.2675 3.62 -8.2675 3.62 -12.8125 4.125 C-11.8125 2.125 -11.8125 2.125 -9.67578125 1.0078125 C-6.31351037 -0.02884946 -3.51206107 -0.07095073 0 0 Z " fill="#BEE6F2" transform="translate(33.8125,10.875)"/>
<path d="M0 0 C0.66 0.99 1.32 1.98 2 3 C-0.31 4.98 -2.62 6.96 -5 9 C-5.99 8.34 -6.98 7.68 -8 7 C-6.68 6.34 -5.36 5.68 -4 5 C-4 4.34 -4 3.68 -4 3 C-2 1.375 -2 1.375 0 0 Z " fill="#73ACC3" transform="translate(58,66)"/>
<path d="M0 0 C0.66 0 1.32 0 2 0 C3.2077558 3.62326739 2.54311128 4.64146369 1 8 C2.32 8.66 3.64 9.32 5 10 C4.67 10.66 4.34 11.32 4 12 C2.0625 11.4375 2.0625 11.4375 0 10 C-0.91214879 6.14090895 -1.26132231 3.78396692 0 0 Z " fill="#64A4BC" transform="translate(38,60)"/>
<path d="M0 0 C1.33895632 1.66215268 2.67130142 3.32963607 4 5 C4.598125 5.680625 5.19625 6.36125 5.8125 7.0625 C7 9 7 9 6.6875 11.25 C6.460625 11.8275 6.23375 12.405 6 13 C5.67 12.01 5.34 11.02 5 10 C4.01 9.67 3.02 9.34 2 9 C2 8.01 2 7.02 2 6 C1.01 5.67 0.02 5.34 -1 5 C-0.67 3.35 -0.34 1.7 0 0 Z " fill="#D4F0F7" transform="translate(18,42)"/>
<path d="M0 0 C0.33 0.99 0.66 1.98 1 3 C-2.63 3.33 -6.26 3.66 -10 4 C-9.67 3.01 -9.34 2.02 -9 1 C-5.8035914 -0.06546953 -3.34252724 -0.07427838 0 0 Z " fill="#279BCE" transform="translate(37,56)"/>
<path d="M0 0 C1.485 0.99 1.485 0.99 3 2 C3 2.66 3 3.32 3 4 C4.32 4.66 5.64 5.32 7 6 C7 6.99 7 7.98 7 9 C6.01 8.34 5.02 7.68 4 7 C4 6.34 4 5.68 4 5 C2.35 4.67 0.7 4.34 -1 4 C-0.67 2.68 -0.34 1.36 0 0 Z " fill="#8ACDE2" transform="translate(52,16)"/>
<path d="M0 0 C2 3 2 3 2 5 C2.99 5.33 3.98 5.66 5 6 C5 7.65 5 9.3 5 11 C4.01 11.495 4.01 11.495 3 12 C2.87625 11.195625 2.7525 10.39125 2.625 9.5625 C2.315625 8.2940625 2.315625 8.2940625 2 7 C1.34 6.67 0.68 6.34 0 6 C0 4.02 0 2.04 0 0 Z " fill="#5CA4BD" transform="translate(26,57)"/>
<path d="M0 0 C6.70212766 1.93617021 6.70212766 1.93617021 9 5 C9 5.66 9 6.32 9 7 C5.88626628 5.50079488 2.87771795 3.91847864 0 2 C0 1.34 0 0.68 0 0 Z " fill="#A0BAC1" transform="translate(35,27)"/>
<path d="M0 0 C-2.38457948 1.58971965 -4.6304124 2.86741593 -7.1875 4.125 C-7.90292969 4.47820313 -8.61835938 4.83140625 -9.35546875 5.1953125 C-9.89816406 5.46085938 -10.44085937 5.72640625 -11 6 C-11 5.01 -11 4.02 -11 3 C-10.34 3 -9.68 3 -9 3 C-9 2.34 -9 1.68 -9 1 C-5.8035914 -0.06546953 -3.34252724 -0.07427838 0 0 Z " fill="#C9EEF4" transform="translate(27,9)"/>
<path d="M0 0 C2.12038635 2.61514317 4.13091744 5.19637616 6 8 C4.68 8 3.36 8 2 8 C1.34 6.35 0.68 4.7 0 3 C-0.66 3 -1.32 3 -2 3 C-1 1 -1 1 0 0 Z " fill="#CBD8DC" transform="translate(8,57)"/>
<path d="M0 0 C0.33 0.66 0.66 1.32 1 2 C1.66 2 2.32 2 3 2 C3 3.98 3 5.96 3 8 C2.34 8 1.68 8 1 8 C-1.125 3.375 -1.125 3.375 0 0 Z " fill="#D6F2FA" transform="translate(25,61)"/>
<path d="M0 0 C1.32 0.99 2.64 1.98 4 3 C3.34 6.3 2.68 9.6 2 13 C1.67 13 1.34 13 1 13 C0.67 8.71 0.34 4.42 0 0 Z " fill="#88B9CA" transform="translate(24,48)"/>
<path d="M0 0 C-1.98611612 1.98611612 -3.44143249 2.91454712 -6 4 C-6.99 4 -7.98 4 -9 4 C-9 3.34 -9 2.68 -9 2 C-3.375 -1.125 -3.375 -1.125 0 0 Z " fill="#649FAC" transform="translate(27,11)"/>
<path d="M0 0 C1.32 0 2.64 0 4 0 C3.67 2.64 3.34 5.28 3 8 C2.67 8 2.34 8 2 8 C2 6.02 2 4.04 2 2 C1.34 2 0.68 2 0 2 C-0.33 2.99 -0.66 3.98 -1 5 C-0.67 3.35 -0.34 1.7 0 0 Z " fill="#D0EEF5" transform="translate(33,41)"/>
<path d="M0 0 C2.23551759 3.35327639 2.17283528 3.90743657 1.625 7.6875 C1.51414063 8.49574219 1.40328125 9.30398437 1.2890625 10.13671875 C1.19367187 10.75160156 1.09828125 11.36648437 1 12 C0.67 12 0.34 12 0 12 C-0.144375 10.88625 -0.28875 9.7725 -0.4375 8.625 C-0.78372035 5.17857953 -0.78372035 5.17857953 -2 3 C-1.34 2.01 -0.68 1.02 0 0 Z " fill="#84BBD1" transform="translate(42,48)"/>
<path d="M0 0 C2.475 0.99 2.475 0.99 5 2 C4.01 2.99 3.02 3.98 2 5 C0.68 4.01 -0.64 3.02 -2 2 C-1.34 1.34 -0.68 0.68 0 0 Z " fill="#D2F2F8" transform="translate(39,25)"/>
<path d="M0 0 C0.33 0.66 0.66 1.32 1 2 C-2.625 6.875 -2.625 6.875 -6 8 C-4.55746343 4.63408134 -2.66735273 2.48952921 0 0 Z " fill="#D2EFF7" transform="translate(16,18)"/>
<path d="M0 0 C2.46800047 1.15173355 4.04783565 2.04783565 6 4 C5.67 4.99 5.34 5.98 5 7 C3.29115995 5.37660195 1.62553283 3.70680947 0 2 C0 1.34 0 0.68 0 0 Z " fill="#5199B5" transform="translate(54,16)"/>
</svg>
